<?xml version="1.0" standalone="no"?><!DOCTYPE svg PUBLIC "-//W3C//DTD SVG 1.1//EN" "http://www.w3.org/Graphics/SVG/1.1/DTD/svg11.dtd"><svg t="1698241667078" class="icon" viewBox="0 0 1024 1024" version="1.1" xmlns="http://www.w3.org/2000/svg" p-id="1713" xmlns:xlink="http://www.w3.org/1999/xlink" width="200" height="200"><path d="M372.859173 2.04422c-6.031306 0.981841-11.221034 2.103944-11.641823 2.524733-0.420789 0.280526 9.11709 1.122103 21.03944 1.542892 25.38759 1.122103 46.567293 3.927362 65.222262 8.836565 14.026293 3.646836 33.52284 12.062612 37.029414 15.849711 1.963681 2.103944 0.981841 2.524733-11.501561 3.927362-41.237301 5.049465-75.461456 25.527853-96.360633 57.92859-8.836565 13.465241-19.496547 36.328099-22.862857 48.390711-1.542892 5.470254-4.628677 13.044453-7.013147 16.831552-4.207888 7.013147-6.732621 13.324978-5.329991 13.324978 0.420789 0 5.610517-7.433935 11.50156-16.410763 14.587345-22.161543 27.351271-34.504681 52.598599-51.336232 11.221034-7.433935 20.899177-13.605504 21.600491-13.605505s-0.420789 1.683155-2.38447 3.787099c-9.678142 10.659983-20.197862 28.333112-25.247327 42.499668-3.787099 10.51972-5.049465 37.590465-2.244207 45.725716 1.122103 3.226047 1.823418 9.11709 1.542892 13.184715-0.561052 10.379457 1.122103 7.574198 3.927362-6.311832 5.049465-25.107065 15.428922-50.073866 26.79022-64.941737 3.085784-4.067625 5.891043-7.153409 6.171569-6.872883 0.280526 0.280526-1.122103 4.909203-2.945522 10.51972-8.415776 24.826539-10.239194 54.56228-4.34815 72.656198 0.701315 2.38447 0.280526 3.226047-2.103944 3.787099-3.506573 0.981841-2.805259 4.348151 2.805258 12.763926 2.244207 3.36631 4.348151 9.397616 5.189729 15.008134 2.38447 13.605504 7.574198 23.984961 16.691288 32.961788 8.556039 8.275513 13.745767 11.361297 22.582332 13.745768 5.049465 1.262366 6.732621 2.945522 12.343138 11.080771l6.311832 9.678142-10.659983 13.184716c-10.239194 12.343138-11.080771 13.184715-17.112077 13.88603-12.763927 1.683155-16.2705 5.049465-18.234181 17.673129-0.701315 4.207888-2.945522 10.659983-4.909203 14.587345-1.963681 3.787099-4.207888 10.098931-4.909202 13.745767-0.701315 3.787099-2.524733 8.13525-4.067625 9.818405-4.488414 4.909203-5.891043 8.836565-5.049466 13.465241 0.701315 3.646836-0.280526 5.891043-7.293672 15.428923-8.13525 10.940509-8.415776 11.080771-16.691289 12.763926-4.628677 0.841578-18.65497 6.031306-31.13837 11.361298-33.382577 14.166556-45.024401 17.25234-65.643052 17.25234-9.257353 0.140263-23.003121-0.140263-30.437056-0.420789-12.763927-0.561052-14.026293-0.420789-18.935495 3.085785-2.945522 1.963681-8.13525 3.927362-11.641823 4.348151-6.452095 0.841578-8.556039 2.524733-12.90419 10.519719-2.38447 4.207888-2.664996 4.348151-12.202875 4.348151h-9.818405L196.408407 484.829226c-13.605504 10.239194-21.03944 17.813392-21.03944 21.600491 0 2.945522 6.872884 0.420789 20.478388-7.854724 20.618651-12.343138 27.491534-13.745767 18.935496-3.927362-4.488414 5.049465-4.488414 5.189728-4.207888 18.935496 0.280526 13.745767 1.542892 24.40575 3.085784 26.088905 1.823418 1.683155 5.329991-3.085784 7.293673-9.958668 1.963681-6.732621 2.524733-7.433935 8.13525-8.976828 3.226047-0.981841 6.592358-2.103944 7.433935-2.524733 0.701315-0.280526 2.945522 2.103944 4.628677 5.329992 5.189728 9.397616 14.306819 20.758914 16.691288 20.758913 2.945522 0 1.402629-7.994987-3.927362-19.216021-2.244207-5.049465-4.207888-9.958668-4.207888-10.800246 0-1.963681 10.659983-5.049465 17.813393-5.049465 4.207888 0 6.311832 1.122103 11.221034 5.891043 5.049465 4.909203 6.171569 5.470254 8.13525 3.927362 2.805259-2.244207 2.664996-6.872884-0.280526-10.098931-2.244207-2.524733-2.103944-2.805259 2.524733-6.732621 5.610517-4.909203 17.813392-13.184715 21.039439-14.447082 1.963681-0.701315 1.963681-0.140263-0.280526 4.628677-3.085784 6.171569-3.506573 18.65497-1.122103 27.351272 2.38447 8.696302 13.465241 30.016267 19.917336 38.572305 3.226047 4.207888 14.587345 16.691289 25.247328 27.491535l19.356284 19.917336-5.049466 11.922349c-2.664996 6.592358-4.909203 12.763927-4.909202 13.605504 0 0.981841 1.402629 3.646836 3.085784 5.891043l2.945522 4.348151-5.189728-0.98184c-7.433935-1.402629-10.51972 1.122103-16.971815 13.88603-4.909203 9.678142-5.329991 11.080771-3.787099 15.008133 0.841578 2.524733 1.542892 4.488414 1.262366 4.628677-0.140263 0.140263-4.207888 2.524733-8.976827 5.470254-10.379457 6.171569-23.984961 19.216021-28.894164 27.631797-5.329991 9.11709-12.343138 31.138371-13.184715 41.798354-1.542892 17.673129 6.592358 34.083892 18.795232 38.151517 16.2705 5.329991 48.951763-4.909203 71.954883-22.582332 23.423909-18.093918 41.097039-28.052586 69.289888-39.273621 25.38759-10.098931 30.296793-12.763927 38.151517-21.460228 10.659983-11.50156 13.324978-24.826539 7.433935-36.468362-3.927362-7.714461-17.532866-20.478388-29.595478-27.912323-5.891043-3.646836-9.537879-6.872884-9.537879-8.415776 0-1.402629-3.36631-4.909203-7.433935-7.994987-4.628677-3.506573-7.994987-7.433935-9.117091-10.379457-2.38447-6.732621-7.293672-10.659983-16.551026-13.465241l-8.275513-2.38447-13.465241-23.143383c-7.433935-12.623664-13.465241-23.143383-13.184715-23.42391 0.140263-0.140263 4.207888 1.122103 8.976827 2.805259l8.696302 3.226047 8.976827 14.727608c12.343138 20.338125 22.301806 34.364418 24.265487 34.083892 0.841578-0.280526 1.262366 0.420789 0.981841 1.402629-0.841578 2.103944 12.062612 12.483401 25.247327 20.338125C490.96056 639.679501 514.524733 648.095277 528.691289 648.095277c4.76894 0 8.415776 1.262366 14.166556 4.628676 9.537879 5.75078 9.537879 5.891043 6.171569 38.432043l-2.38447 24.265487 4.768939 9.257354c2.664996 5.189728 7.574198 11.782086 11.221035 15.148396l6.452095 5.891043-1.262367 21.600491c-1.402629 21.179702-1.542892 21.881017-7.433935 35.065733-8.976828 19.917336-16.971815 42.920457-21.179703 59.892271-2.945522 12.202875-8.696302 33.242314-14.026293 51.19597-0.561052 1.963681-2.805259 2.524733-12.904189 2.805258l-12.202875 0.420789-2.38447 4.909203c-3.226047 6.732621-3.085784 10.659983 0.981841 19.496547l3.506573 7.574198-8.415776 8.275513c-9.678142 9.257353-9.678142 9.678142-2.524733 21.03944 4.909203 7.714461 4.909203 7.574198-7.433935 23.844698-4.628677 6.031306-8.275513 11.50156-8.275513 12.202875s1.402629 1.542892 3.226048 1.823418c2.244207 0.280526 3.226047 1.542892 3.506573 4.207888 0.561052 4.348151 4.488414 5.470254 4.488414 1.402629 0-4.628677 2.244207-6.031306 10.659982-6.452095 4.488414-0.280526 13.184715-0.981841 19.216022-1.542892 8.976828-0.841578 10.800246-0.701315 10.800245 0.981841 0 1.122103-1.402629 2.805259-3.085784 3.646836-2.38447 1.122103-2.664996 1.542892-0.841578 1.542892 3.085784 0.140263 6.732621-3.646836 5.891043-6.171569-0.561052-1.402629-3.787099-2.103944-11.361297-2.38447l-10.51972-0.420789-1.823418-5.189728c-0.841578-2.805259-3.787099-7.714461-6.311832-10.940508-2.945522-3.787099-4.067625-6.311832-3.226047-7.15341 0.981841-0.981841 2.103944-0.280526 3.646836 1.823418 1.122103 1.823418 4.628677 6.031306 7.714461 9.537879l5.75078 6.311832 7.433936-7.013146c14.166556-13.605504 11.922349-13.324978 23.00312-2.524733 5.329991 5.329991 11.361297 11.922349 13.184716 14.727608 4.76894 7.153409 6.592358 6.732621 1.963681-0.420789-1.963681-3.085784-3.36631-6.031306-3.085785-6.311832 0.420789-0.280526 5.189728-2.38447 10.800246-4.76894 12.062612-4.909203 13.044453-4.628677 21.319965 6.311832 4.348151 5.75078 5.470254 8.275513 4.76894 10.659983-0.701315 1.963681-0.561052 2.664996 0.561052 2.103944 2.805259-1.823418 1.683155-5.891043-3.927362-13.605504-8.415776-11.782086-10.098931-12.343138-24.546013-6.872884-13.044453 4.909203-16.2705 4.909203-9.257354 0 8.556039-6.031306 10.51972-17.112077 5.049466-27.77206l-2.103944-4.067625 10.51972-7.994987c9.257353-7.153409 10.379457-8.556039 10.379457-12.763927 0-3.787099-1.122103-5.610517-5.891044-9.678142-3.226047-2.805259-6.311832-5.049465-7.013146-5.049465-2.805259 0-0.420789-6.732621 8.836565-26.229168 23.984961-49.79334 26.649957-57.367538 32.120211-89.207224 2.103944-12.343138 4.067625-18.935496 9.11709-29.455215 3.506573-7.433935 7.013147-13.88603 7.714461-14.306819 0.841578-0.561052 10.659983 0.561052 22.02128 2.244207 20.057599 2.945522 20.618651 2.945522 22.442069 0.420788 4.207888-5.891043 36.889151-114.87534 36.889151-123.291115 0-2.38447 0.561052-2.103944 3.36631 1.402629 3.36631 4.067625 3.787099 4.207888 16.551026 4.488414 7.153409 0.140263 16.2705 0.420789 20.057599 0.561052 3.927362 0.140263 8.556039 0.140263 10.51972 0 1.963681-0.140263 10.800246 0.140263 19.917336 0.701314 15.148396 0.841578 16.691289 0.701315 21.179702-2.103944 7.293672-4.488414 14.727608-13.324978 16.2705-19.356284 0.701315-2.945522 2.38447-10.098931 3.506573-15.849711 1.262366-5.75078 6.311832-23.844698 11.361298-39.974935 5.049465-16.2705 12.062612-39.133358 15.428922-51.055707 6.311832-21.881017 17.112077-69.570413 18.514707-81.633025 0.701315-6.452095 0.701315-6.592358-6.171569-11.92235-3.787099-3.085784-11.080771-8.275513-16.2705-11.782086l-9.397616-6.311832-6.452095-20.338124c-7.854724-24.546013-9.958668-28.894164-17.673129-36.328099-6.732621-6.452095-19.216021-11.782086-39.69441-17.112078-10.800246-2.664996-13.605504-4.067625-19.63681-9.397616-6.592358-5.891043-40.816513-23.844698-42.359405-22.161543-0.841578 0.841578 7.153409 4.909203 21.03944 10.659983 8.836565 3.646836 13.184715 6.592358 22.722594 15.569185 6.452095 6.171569 15.288659 15.849711 19.777074 21.600491 4.348151 5.75078 8.275513 10.51972 8.556038 10.51972 0.981841 0-3.787099-8.13525-7.293672-12.483401-2.103944-2.38447-3.226047-5.049465-2.664996-5.891043 0.561052-0.981841 0.420789-1.262366-0.420788-0.841578-1.402629 0.841578-8.415776-5.470254-7.293673-6.592357 1.262366-1.262366 27.631797 6.452095 36.047573 10.519719 12.202875 5.891043 18.65497 15.008134 24.686276 34.224155 0.701315 2.524733-1.122103 3.646836-14.447082 9.53788-20.478388 9.11709-32.260474 16.971815-35.90731 24.265487-1.683155 3.085784-5.049465 14.587345-7.714461 25.527853-2.664996 10.940509-5.470254 19.917336-6.311832 19.917336-0.841578 0-4.067625-1.963681-7.293672-4.207888-5.891043-4.348151-8.556039-8.836565-15.849711-27.351271-10.379457-26.229168-20.758914-44.884138-23.283647-42.359405-0.701315 0.561052-0.280526 1.683155 0.841578 2.38447 1.402629 0.981841 1.542892 1.402629 0.280526 1.402629-1.262366 0-1.542892 1.963681-0.841578 7.293672 0.561052 5.470254 0.280526 6.872884-0.701315 5.329992-1.122103-1.542892-1.542892-0.280526-1.542892 5.189728 0 3.927362 0.561052 7.574198 1.262366 7.994987 0.561052 0.420789 0.981841 2.524733 0.701315 4.628677-0.140263 2.103944 0.280526 4.76894 0.981841 6.031306 1.122103 1.683155 1.262366 1.402629 0.701314-1.122104-0.561052-2.805259-0.140263-3.226047 3.085785-3.085784 2.103944 0.140263 5.049465 0.140263 6.592357 0l2.805259-0.140263-2.805259-1.262366c-2.524733-1.122103-2.524733-1.262366-0.280525-1.262367 1.963681-0.140263 2.38447-0.841578 1.683155-2.945521-0.420789-1.542892-0.280526-2.805259 0.420789-2.805259 2.244207 0 2.945522 3.787099 1.262366 5.610517-1.402629 1.402629-1.122103 1.542892 1.122103 0.841578 1.542892-0.561052 2.244207-0.561052 1.683156 0-0.561052 0.561052-0.140263 1.963681 0.701314 3.226047 1.402629 1.823418 1.402629 1.963681-0.280526 0.420789-1.122103-0.841578-2.524733-1.683155-3.085784-1.683155-1.823418 0 0 7.293672 1.963681 8.696302 1.402629 0.841578 1.402629 1.122103-0.280526 1.122103-1.823418 0-1.823418 0.140263 0 1.402629 1.823418 1.122103 1.823418 1.402629-0.280526 1.40263-1.262366 0-2.805259-0.701315-3.226047-1.40263-0.420789-0.841578-0.140263-1.402629 0.701314-1.402629 0.981841 0 1.122103-0.841578 0.140263-2.664996-0.841578-1.402629-0.981841-2.945522-0.561051-3.506573 0.420789-0.420789-1.402629-0.841578-4.348151-0.841578-3.085784 0-4.909203 0.561052-4.348151 1.40263 1.683155 2.664996-3.226047 3.085784-7.013147 0.561051-1.963681-1.262366-3.927362-1.963681-4.34815-1.683155-1.963681 2.103944 23.423909 13.745767 29.595478 13.745768 5.470254 0 5.610517 4.909203 0.701315 22.722594-4.488414 15.709448-4.628677 15.989974-13.044453 23.704435-7.854724 7.293672-8.275513 7.994987-6.452095 10.659983 1.683155 2.38447 2.244207 2.524733 3.787099 0.981841 0.981841-1.122103 1.402629-1.963681 0.981841-1.963681-1.402629 0 3.226047-7.854724 5.891043-9.958668 2.38447-1.823418 2.38447-1.823418 0.140263 0.98184-2.664996 3.085784-3.36631 5.470254-1.262367 4.207888 0.701315-0.561052 0.981841 0.561052 0.420789 2.244207-0.701315 2.805259-0.841578 2.805259-1.683155 0.420789-0.701315-2.244207-0.981841-2.244207-1.683155-0.420789-0.561052 1.262366-0.280526 2.805259 0.561052 3.646836 2.244207 2.244207 0 9.678142-3.226048 10.51972-2.945522 0.841578-3.36631 0-1.262366-3.226048 1.262366-1.823418 1.402629-1.823418 1.402629 0 0.140263 1.683155 0.420789 1.542892 1.542892-0.420788 0.841578-1.402629 1.122103-3.226047 0.701315-4.207888-0.280526-0.981841-0.701315-0.701315-0.701315 0.701314-0.140263 1.402629-0.981841 2.103944-1.963681 1.683156-1.963681-0.701315-5.891043 8.275513-4.628676 10.519719 0.561052 0.701315 0.420789 2.38447-0.140263 3.927362-0.841578 1.963681-1.262366 1.542892-1.963681-2.384469-1.262366-5.470254-0.280526-11.221034 1.823418-11.221035 1.122103 0 0.280526-5.329991-1.122104-6.872883-0.420789-0.420789-2.805259 1.542892-5.610517 4.207887-3.927362 3.787099-2.664996 0.981841 7.15341-14.587344 6.732621-10.800246 11.782086-19.917336 11.361297-20.338125-0.561052-0.420789-2.945522 1.122103-5.470254 3.506573-2.38447 2.244207-6.732621 6.171569-9.397617 8.415776-31.839685 27.491534-57.507801 52.458336-78.126452 76.162771-7.714461 8.836565-15.428922 17.392603-17.112077 18.935496l-3.085785 2.664995-14.727607-7.293672c-17.532866-8.696302-43.200983-25.38759-53.58044-34.644944-4.067625-3.646836-9.11709-9.958668-11.080771-13.88603-7.574198-15.008134-24.265487-54.842806-23.704435-56.385698 0.420789-0.981841 4.207888-2.945522 8.556038-4.207888l7.854724-2.524733 5.049466 5.049466c3.506573 3.506573 6.452095 9.11709 10.239194 18.935495 9.257353 24.546013 17.112077 41.237301 20.338125 43.341246 2.945522 1.823418 4.488414 1.823418 15.008133-0.841578 19.216021-4.76894 35.065733-10.239194 35.767047-12.343138 1.122103-2.805259-4.348151-13.605504-8.275512-16.410762-6.031306-4.348151-29.595478-17.673129-42.359405-24.125224-12.623664-6.311832-42.780194-24.966802-44.603612-27.631798-0.561052-0.841578-1.683155-5.891043-2.524733-11.361297-4.067625-24.686276-10.379457-56.245435-14.587345-73.497775-4.348151-18.093918-6.872884-23.704435-7.293672-16.2705-0.140263 1.963681 0.140263 3.506573 0.701315 3.506573s1.823418 3.085784 2.664995 7.013146c1.262366 5.470254 1.262366 7.854724-0.280526 11.361298-0.981841 2.38447-2.103944 3.927362-2.524732 3.226047-0.420789-0.701315-0.420789-0.420789-0.140263 0.561052 0.280526 1.122103 0.841578 3.36631 1.262366 5.189728l0.841578 3.366311-8.275513-1.963681c-4.488414-1.122103-8.696302-1.963681-9.257354-2.103944-0.701315 0-0.701315-0.701315-0.140263-1.683155 0.561052-0.841578 0.420789-1.122103-0.561051-0.561052-0.841578 0.420789-1.823418 0.280526-2.38447-0.561052-0.420789-0.701315 0-1.402629 0.98184-1.402629 1.262366 0 1.262366-0.420789-0.280525-1.40263s-2.664996-0.701315-3.7871 0.981841c-2.103944 2.664996-2.38447 0.841578-0.561051-2.244207 0.701315-1.122103 0.701315-3.646836-0.140263-6.031306-1.262366-3.787099-1.542892-3.787099-3.226048-1.542892-0.981841 1.402629-1.542892 3.085784-0.98184 3.787099 0.420789 0.701315 1.262366 0.140263 1.823418-1.402629 0.981841-2.38447 1.122103-2.244207 1.122103 0.841577 0.140263 5.610517-1.542892 7.013147-4.768939 3.787099-1.542892-1.542892-1.963681-2.38447-0.841578-1.683155 1.262366 0.701315 1.683155 0.420789 1.262367-0.841577-0.420789-1.122103 0.140263-3.646836 1.122103-5.750781 2.103944-4.067625 0.561052-10.940509-3.36631-15.569185-1.683155-1.823418-1.683155-2.38447-0.280526-2.38447 1.262366 0 0.981841-0.701315-0.841578-2.103944-1.402629-1.122103-3.226047-1.963681-4.067625-1.963681-0.701315 0-0.140263 0.841578 1.262367 1.963681 1.542892 1.122103 2.103944 2.103944 1.262366 2.103944s-2.244207-0.841578-3.085784-1.963681c-2.244207-2.664996 0.280526-4.207888 3.787099-2.384469 2.103944 1.122103 2.805259 0.561052 4.207888-3.085785 1.402629-4.348151 1.402629-4.348151-0.701315-1.402629-1.122103 1.823418-2.945522 3.226047-3.787099 3.226047-0.841578 0-0.561052-0.561052 0.561052-1.402629 1.122103-0.701315 1.542892-1.683155 1.122103-2.103944-1.122103-1.262366-7.433935 4.76894-8.696302 8.275513-0.701315 1.963681-0.280526 2.38447 1.262367 1.683155 1.122103-0.420789 2.103944-0.140263 2.103944 0.561052s0.981841 0.981841 2.103944 0.561051c1.542892-0.701315 2.945522 0.981841 5.049465 5.610518 2.945522 6.732621 2.524733 10.659983-0.701315 7.994987-1.823418-1.542892-3.646836-0.701315-3.646836 1.542892 0 0.701315 0.561052 0.981841 1.262367 0.420789 1.963681-1.122103 3.506573 2.103944 1.823418 3.787099-0.981841 0.981841-1.963681 0.420789-3.085785-1.683155-1.262366-2.244207-1.262366-3.506573-0.140263-4.628677 0.841578-0.841578 1.542892-2.524733 1.542893-3.646836-0.140263-1.963681-0.420789-1.823418-1.963682 0.140263-1.683155 2.244207-1.963681 2.244207-3.36631-1.122104-2.103944-4.348151-2.244207-7.714461-0.280526-4.768939 1.122103 1.823418 1.402629 1.683155 1.40263-0.420789 0-2.524733-3.506573-3.36631-4.909203-1.122104-1.262366 2.244207 4.628677 15.849711 9.257353 21.600492 5.75078 7.013147 9.397616 8.696302 26.509694 12.202875 7.994987 1.542892 14.727608 3.085784 15.008134 3.226047 0.140263 0.280526 1.262366 4.76894 2.38447 9.958668l1.963681 9.678142-11.361298-0.98184c-6.311832-0.420789-16.2705-1.262366-22.02128-1.683155-8.696302-0.701315-10.239194-0.561052-8.696301 0.98184 0.981841 1.122103 4.067625 1.683155 7.994987 1.402629 3.506573-0.140263 6.311832 0.280526 6.311831 0.981841 0 0.841578 3.646836 1.122103 9.117091 0.561052 6.592358-0.420789 9.11709-0.140263 9.11709 0.98184 0 1.122103 1.683155 1.542892 4.488414 1.262366l4.488414-0.420788 2.38447 10.379457c4.348151 18.234181 4.348151 18.65497-3.085785 22.301805-7.854724 3.927362-10.659983 3.085784-19.496547-5.610517-3.787099-3.787099-8.556039-6.872884-12.202875-7.854724-10.239194-2.945522-30.857845-24.826539-33.943629-36.047573-1.963681-7.293672 0.561052-23.564172 5.329991-33.52284 2.244207-4.76894 4.488414-11.221034 4.909203-14.447082 1.683155-11.922349 4.488414-14.727608 16.971814-16.410763 5.891043-0.841578 8.415776-3.085784 22.301806-19.496547l6.732621-8.13525 14.447082 14.026293c7.994987 7.574198 17.953655 16.551026 22.161543 19.777073 6.452095 4.76894 7.714461 6.452095 7.153409 9.257353-0.280526 1.823418 0 3.36631 0.841578 3.366311s1.262366-0.561052 0.841577-1.262367c-0.420789-0.701315 0.140263-1.542892 1.262367-1.963681 1.402629-0.561052 1.683155-0.140263 1.262366 1.542893-0.701315 1.823418-0.561052 1.963681 0.561052 0.420788 1.122103-1.683155 2.103944-1.402629 5.470254 0.981841 2.244207 1.683155 7.013147 4.348151 10.51972 6.171569 5.189728 2.664996 8.13525 5.891043 16.2705 17.953655 5.329991 8.13525 11.080771 15.849711 12.623663 17.25234 2.664996 2.524733 2.945522 2.38447 9.257354-0.561051l6.592358-3.085785 3.787099 3.36631 3.787099 3.366311-3.226048-3.646836-3.226047-3.646837 11.641823-6.73262c27.351271-15.709448 31.418896-18.65497 42.078879-31.55916 5.891043-6.872884 13.044453-16.410763 15.989974-21.179702 3.085784-4.76894 8.13525-11.221034 11.361298-14.306819 5.470254-5.049465 6.592358-5.610517 14.026293-5.891043 5.049465-0.140263 10.239194-1.262366 13.745767-3.085784l5.75078-2.945522 15.989974 3.226047c8.836565 1.963681 17.112077 3.36631 18.234181 3.366311 2.103944 0 1.542892-0.561052-11.080771-11.361298l-6.171569-5.329991 9.818405-10.379457c16.831552-17.532866 23.704435-37.029414 17.953655-50.073866l-2.524733-5.610517 5.049466-10.379457c11.922349-23.844698 15.709448-42.359405 15.709448-74.339353-0.140263-21.319965-0.561052-25.247327-3.787099-37.450202-2.103944-7.433935-6.732621-19.496547-10.379457-26.79022l-6.592358-13.324978 5.470254-4.76894C790.001128 34.304694 807.954783 17.753668 807.954783 16.351039c0-2.805259-28.894164 16.410763-44.603612 29.735741-4.067625 3.506573-7.714461 5.891043-8.13525 5.470254-0.420789-0.420789 4.909203-12.202875 11.922349-26.088905L779.902197 0.080539h-17.532866c-20.057599 0-17.392603-2.38447-21.03944 18.795233-1.122103 6.872884-2.244207 12.623664-2.524733 12.904189-0.280526 0.280526-3.506573-2.103944-7.433935-5.329991-10.659983-8.696302-21.179702-15.148396-34.644944-21.03944L684.523404 0.080539h-65.222262c-65.082 0-65.222263 0-73.918565 3.36631-11.361297 4.207888-25.107065 11.080771-34.364418 17.252341l-7.293672 4.768939-6.732621-5.049465c-3.646836-2.805259-13.324978-8.415776-21.319965-12.343138L461.084556 0.781854 422.371988 0.501328c-24.546013 0-42.639931 0.420789-49.512815 1.542892z m125.39506 142.787663c0.420789 14.447082 0.280526 15.008134-2.38447 14.306819-1.542892-0.280526-4.909203-0.841578-7.433935-0.981841-2.38447-0.280526-4.76894-0.841578-5.189729-1.262366-1.122103-1.122103 5.75078-20.057599 10.098931-27.77206 4.628677-8.275513 4.348151-8.976828 4.909203 15.709448z m74.19909 4.067625c9.678142 15.989974 20.197862 39.27362 19.216021 42.219142-0.701315 1.823418-24.826539-35.065733-29.174689-44.463349-1.823418-3.927362-4.628677-11.080771-6.452095-16.130237l-3.36631-9.11709 5.049465 5.610517c2.664996 3.085784 9.397616 12.90419 14.727608 21.881017z m-91.170905-1.963681c-1.963681 6.031306-3.646836 11.080771-3.646836 11.080771 0 0.140263-1.542892 0.701315-3.36631 1.262367-2.805259 0.841578-3.226047 0.561052-2.524733-1.262367 1.122103-2.945522 12.202875-21.881017 12.763927-21.881017 0.140263 0-1.262366 4.909203-3.226048 10.800246z m159.058163 6.592358c12.763927 6.872884 30.016267 19.075759 35.065733 24.686275 2.244207 2.524733 0.420789 1.963681-8.836565-2.664995-16.971815-8.556039-32.821526-18.935496-50.775181-33.522841-3.085784-2.524733 9.958668 3.646836 24.546013 11.501561zM457.297457 155.772392c-0.561052 5.049465-0.841578 9.397616-0.701314 9.818405 0.280526 0.420789-1.262366 1.963681-3.226048 3.36631l-3.506573 2.664996 0.98184-6.031306c0.841578-5.610517 6.311832-20.197862 7.293673-19.356285 0.140263 0.280526-0.140263 4.488414-0.841578 9.53788z m168.034991 17.532866c-5.329991 1.402629-6.452095 1.262366-9.257354-1.262367-3.506573-3.085784-17.112077-19.63681-17.112077-20.758913 0-0.420789 7.293672 4.067625 16.130237 9.958668l16.130237 10.51972-5.891043 1.542892z m-107.721931-3.085785c0 0.561052-2.244207-0.420789-4.909202-2.103944-4.348151-2.945522-4.909203-3.927362-4.909203-9.537879l0.140263-6.311832 4.76894 8.415776c2.664996 4.628677 4.909203 8.836565 4.909202 9.537879z m88.926698-2.805258c3.646836 4.488414 6.452095 8.415776 6.171569 8.696301-0.981841 0.841578-9.537879 4.909203-9.678142 4.628677-0.140263-0.701315-1.122103-7.013147-1.963681-12.623664-0.420789-2.805259-1.122103-6.311832-1.683155-7.714461-1.122103-3.226047-0.841578-2.945522 7.153409 7.013147z m-112.070081-4.067625c3.787099 1.683155 5.049465 3.226047 6.311832 8.13525 0.841578 3.36631 1.823418 6.872884 2.103944 7.714461 0.701315 2.103944-2.945522 2.244207-15.709449 0.98184-6.732621-0.701315-8.415776-1.402629-7.994987-3.226047 0.280526-1.262366 0.841578-5.189728 1.262367-8.976828 0.841578-6.171569 1.122103-6.592358 5.049465-6.592357 2.244207 0 6.311832 0.841578 8.976828 1.963681z m-18.093918 4.628676c-0.420789 2.945522-0.841578 6.452095-0.841578 7.714462 0 1.963681-1.122103 2.524733-5.049465 2.524732-4.76894 0-5.049465-0.280526-4.348151-3.927362 1.683155-8.696302 3.646836-11.50156 7.433935-11.50156 3.506573 0 3.646836 0.280526 2.805259 5.189728z m-39.413884 11.641824c1.683155 7.714461 1.683155 10.239194 0.140263 16.130237l-1.963681 7.013146-0.701314-4.909202c-2.103944-12.90419-2.524733-18.935496-1.542893-26.369431 0.701315-4.488414 1.402629-6.452095 1.542893-4.488414 0.280526 1.963681 1.402629 7.574198 2.524732 12.623664z m254.577219 1.402629c2.945522 5.75078 7.293672 16.971815 9.818405 24.966802 2.524733 7.994987 5.189728 13.88603 5.75078 13.324978 0.561052-0.561052 1.262366-5.891043 1.542892-11.641823l0.420789-10.379457 4.488414 8.976827c5.189728 10.51972 7.574198 18.65497 4.488414 15.709449-3.085784-2.805259-5.891043-2.103944-4.067625 1.122103 1.122103 2.103944 1.122103 2.805259-0.140263 2.805259-0.981841 0-2.38447 0.841578-3.226048 1.963681-1.122103 1.402629-3.226047 1.683155-7.714461 0.98184-6.171569-0.841578-6.311832-0.981841-9.11709-9.537879-1.683155-4.76894-4.067625-9.818405-5.610518-11.50156-3.646836-3.927362-13.324978-7.013147-29.876004-9.257354-13.605504-1.823418-14.867871-2.244207-22.442069-8.13525-4.488414-3.506573-9.537879-7.854724-11.361297-9.818405l-3.226047-3.506573 6.872883-1.683155c6.171569-1.402629 7.574198-1.262366 12.343138 1.122103 3.085784 1.542892 9.537879 4.067625 14.587345 5.610517 7.714461 2.38447 13.184715 3.36631 31.278633 5.189729 1.262366 0.140263 2.38447-0.420789 2.38447-1.262367 0-2.244207-3.787099-14.166556-5.610517-17.953655-1.542892-3.085784-1.542892-3.226047 0.701315-0.420788 1.262366 1.542892 4.76894 7.574198 7.714461 13.324978z m-235.641723-7.013147c0 1.823418-0.981841 2.805259-2.805259 2.805259-3.226047 0-3.646836-1.402629-1.122103-3.927362 2.524733-2.524733 3.927362-2.103944 3.927362 1.122103z m61.154637 2.805259c4.067625 3.085784 7.854724 5.610517 8.275513 5.610517 0.420789 0 5.049465 4.348151 10.379457 9.678142 5.189728 5.329991 13.044453 12.062612 17.392604 14.867871 4.488414 2.945522 7.854724 5.470254 7.714461 5.610517-0.280526 0-4.76894-0.140263-10.239194-0.561051l-9.678142-0.841578-1.262367-6.311832c-2.244207-11.782086-11.221034-20.057599-23.423909-21.740754-6.872884-0.981841-8.275513-2.664996-8.415776-9.537879 0-3.36631 0.981841-3.085784 9.257353 3.226047z m109.685612 10.659983c5.189728 4.488414 9.537879 7.994987 9.678142 8.13525 0.140263 0.140263-7.293672-0.701315-16.551026-1.823418-15.569185-1.823418-16.691289-2.244207-16.691288-5.049466 0-2.103944 1.683155-3.787099 6.031306-5.891043 3.226047-1.683155 6.452095-3.085784 7.013146-3.085784 0.561052-0.140263 5.329991 3.36631 10.51972 7.714461zM457.297457 185.788659c0 5.049465 1.683155 12.062612 2.805259 12.062612 0.561052 0 1.402629-3.085784 1.963681-7.013147 0.561052-3.787099 1.402629-7.153409 1.963681-7.433935 0.561052-0.280526 3.36631-0.280526 6.311832 0 5.049465 0.701315 5.189728 0.841578 5.189728 6.872883 0 3.226047-0.701315 6.452095-1.542892 7.013147-2.945522 1.823418-6.872884 12.623664-6.872884 19.496547-0.140263 6.171569-0.420789 6.592358-1.683155 3.506573-0.701315-1.963681-4.207888-9.958668-7.574198-17.673129C450.985625 186.630236 450.284311 182.422348 454.492199 182.422348c1.963681 0 2.805259 0.981841 2.805258 3.366311z m38.151517 0.280525c8.696302 0.841578 9.678142 1.262366 11.501561 4.909203 2.38447 4.76894 1.963681 4.909203-2.805259 1.683155-3.927362-2.524733-15.428922-3.226047-21.881017-1.402629-3.646836 0.981841-3.927362 0.701315-3.927362-3.36631 0-3.927362 0.280526-4.207888 3.927362-3.506574 2.103944 0.420789 7.994987 1.122103 13.184715 1.683155z m23.704435 3.506574c8.415776 2.945522 13.465241 7.714461 15.989974 15.428922 1.963681 5.891043 2.103944 7.714461 0.701315 10.51972-1.542892 2.664996-1.402629 3.787099 0.701315 7.013146 1.823418 2.805259 2.244207 5.470254 1.683155 10.659983-0.420789 3.646836-0.280526 6.732621 0.280526 6.732621 1.262366 0 2.945522-6.872884 2.945521-12.062612 0-3.226047 0.420789-3.36631 9.257354-3.366311 5.189728 0 11.641823 0.701315 14.587344 1.542893 5.049465 1.542892 5.329991 1.823418 6.031306 9.678142 1.122103 10.098931 5.891043 23.143383 11.641824 31.13837 5.891043 8.275513 21.881017 20.057599 32.120211 23.704436 16.971815 5.75078 42.219142 5.049465 55.54412-1.683156 11.922349-6.031306 23.143383-22.582332 24.686276-36.748887 0.841578-7.994987 4.067625-12.623664 10.239194-14.867871 5.329991-1.823418 9.11709 2.103944 7.854724 7.854724-0.841578 3.646836-0.561052 3.646836 3.646836-1.683155 16.971815-20.758914 24.966802-26.088905 36.047573-23.564172 4.067625 0.981841 5.610517 2.38447 8.275513 7.433935 4.067625 7.994987 3.36631 16.410763-2.805259 29.455215-10.51972 22.301806-49.512814 50.073866-63.258581 45.024401-2.244207-0.841578-4.628677 0.280526-10.239194 4.76894-8.556039 7.013147-32.120211 18.65497-60.874112 30.15653-32.541 12.90419-43.06072 16.130237-53.299913 16.130237-8.415776 0-9.958668-0.561052-19.216022-6.311832-21.881017-13.605504-54.001228-42.499668-63.959896-57.507802l-5.189728-7.714461 13.044452-0.841577c13.184715-0.981841 24.546013-4.909203 28.894164-10.239194 2.664996-3.226047 1.122103-2.805259-8.696302 2.244207-7.433935 3.787099-10.51972 4.488414-21.740754 5.049465l-12.90419 0.561052-1.963681-4.628677c-1.122103-2.664996-2.945522-9.678142-4.207888-15.709448-1.262366-6.031306-3.646836-15.849711-5.189728-21.740754-2.103944-7.433935-2.524733-10.800246-1.402629-11.221035 0.841578-0.280526 1.542892-2.805259 1.542892-5.610517 0-8.976828 2.524733-14.727608 8.696302-20.338125 5.75078-5.189728 6.452095-5.470254 13.88603-4.909202 5.329991 0.420789 9.257353 1.683155 12.4834 3.927362l4.76894 3.36631-4.067625 0.841578c-15.709448 3.226047-21.179702 18.374444-12.904189 35.346258 4.348151 8.976828 9.397616 12.90419 16.130237 12.763927 7.714461-0.280526 14.447082-8.556039 14.166555-17.532867-0.140263-3.787099-0.280526-4.067625-0.841577-1.122103-1.542892 8.556039-9.257353 9.678142-15.148397 2.38447-3.506573-4.067625-3.646836-3.506573-1.262366 2.524732 0.561052 1.262366 0.140263 2.103944-0.98184 2.103944-2.805259 0-11.922349-26.369431-9.958668-28.333111 1.122103-1.122103 1.823418-0.981841 2.384469 0.420788 0.280526 1.122103 1.542892 4.488414 2.664996 7.574199l2.103944 5.610517V218.89071c0.140263-5.891043 3.506573-11.221034 7.153409-11.221034 2.38447 0 4.628677 2.244207 9.53788 9.257353 1.542892 2.524733 1.683155 2.38447 0.98184-0.561052-1.402629-5.049465 0.140263-3.506573 3.36631 3.366311 4.067625 8.556039 5.189728 7.013147 1.683156-2.103944-2.805259-7.293672-8.976828-16.691289-12.343138-18.795233-2.524733-1.542892-2.38447-10.800246 0.140263-10.800245 0.981841 0 3.927362 0.701315 6.592357 1.542892z m-76.723822 7.854724c0.561052 1.262366 0.140263 2.805259-0.841578 3.506573-2.945522 1.683155-4.348151 1.262366-3.36631-1.122103 0.420789-1.262366 0.841578-2.805259 0.841577-3.506574 0-2.103944 2.38447-1.402629 3.366311 1.122104z m198.892835 4.067625c19.917336 2.524733 36.187836 6.311832 40.956775 9.537879 6.171569 3.927362 8.13525 9.958668 8.976828 26.79022 0.420789 11.922349 0.140263 17.392603-1.683155 23.143383-6.171569 20.758914-20.197862 29.595478-46.707556 29.595479-27.912323 0-48.250448-10.239194-60.032534-30.15653-7.013147-11.922349-9.537879-22.02128-8.415776-32.681263l0.841578-8.696302 3.787099 1.402629c6.872884 2.664996 28.192849 6.452095 31.839685 5.750781 3.506573-0.561052 3.506573-0.561052 2.664996 7.013146-2.524733 21.03944 11.922349 37.309939 28.192848 31.979948 5.329991-1.823418 11.50156-8.275513 12.763927-13.465241 1.402629-5.189728-0.280526-5.610517-2.945521-0.701315-1.683155 3.36631-3.085784 4.348151-6.452095 4.348151-4.488414 0-11.080771-5.329991-11.080772-9.11709 0-1.122103-0.701315-2.103944-1.542892-2.103944-0.981841 0-1.122103 0.981841-0.561052 2.384469 1.683155 4.207888 1.542892 6.732621-0.561051 6.732621-3.506573 0-12.062612-29.595478-9.53788-32.681263 1.122103-1.542892 1.823418-1.262366 3.226048 1.40263 1.122103 1.823418 1.963681 4.76894 1.963681 6.73262 0.140263 6.592358 2.38447 7.574198 3.36631 1.683155 0.841578-5.75078 6.031306-11.50156 10.239194-11.50156 1.262366 0 4.348151 2.38447 6.872884 5.189729 3.085784 3.36631 4.76894 4.348151 4.768939 2.945521 0-2.945522-10.239194-12.062612-14.727607-13.184715-6.171569-1.542892-13.044453 0.701315-18.093918 5.891043-3.506573 3.506573-4.909203 4.348151-5.470255 2.945521-0.841578-2.244207 5.891043-9.257353 11.641824-12.343138 1.963681-0.981841 7.994987-1.823418 13.465241-1.823418 8.415776 0 11.361297 0.701315 19.075758 4.488414s10.239194 6.031306 14.587345 12.483401c3.646836 5.610517 5.470254 9.958668 5.891043 14.727608 0.841578 8.556039 3.787099 8.275513 3.646836-0.420789 0-7.714461-5.189728-18.374444-11.641823-23.984961-8.556039-7.574198-16.130237-9.958668-30.998107-10.098931-12.763927-0.140263-13.745767 0-20.618651 4.488414-4.067625 2.524733-7.574198 5.470254-7.854724 6.311831-0.420789 1.122103-1.402629 0.701315-2.945522-1.122103-5.75078-6.872884-6.452095-8.696302-5.610517-13.324978l0.98184-4.488414 10.659983 0.841577c5.891043 0.561052 18.093918 1.963681 27.070746 3.085785z m-189.214693 14.727608c2.805259 4.909203 5.189728 10.239194 5.189728 11.641823 0 1.542892 1.122103 3.927362 2.524733 5.470254 1.683155 2.103944 1.823418 2.524733 0.280526 1.683155-1.683155-0.841578-1.683155-0.701315-0.420789 0.701315 1.823418 1.963681 5.189728 0.561052 3.787099-1.683155-0.561052-0.981841-0.280526-1.122103 0.561052-0.561052 1.262366 0.701315 1.122103 1.823418-0.420789 4.067625-1.823418 2.805259-1.683155 3.646836 1.542892 9.11709 1.963681 3.36631 3.927362 5.75078 4.348151 5.329992 0.420789-0.280526 0.140263-1.542892-0.420789-2.524733-0.701315-0.981841-1.262366-2.524733-1.402629-3.226047 0-0.841578-0.280526-2.664996-0.420789-4.207888-0.280526-2.664996-0.420789-2.664996-1.402629-0.140263-0.841578 2.103944-1.262366 2.244207-1.823418 0.701314-0.420789-1.122103 0.140263-2.805259 1.122103-3.787099 1.542892-1.402629 2.244207-0.420789 3.927362 5.470255 1.262366 3.927362 1.823418 7.854724 1.40263 8.556038-0.561052 0.841578-0.280526 1.823418 0.420788 2.38447 0.701315 0.420789 2.664996 5.75078 4.207888 11.782086l2.945522 10.940509-2.945522-0.981841c-21.03944-6.171569-35.346258-23.564172-38.852831-46.707555-1.542892-10.51972-0.981841-13.745767 1.542892-9.958669 0.981841 1.542892 1.122103 0.701315 0.420789-2.805258-1.542892-7.854724-1.402629-8.976828 1.122103-9.537879 1.542892-0.280526 2.524733 0.701315 2.945522 2.805258 0.561052 2.805259 0.561052 2.664996 0.841577-0.701314 0.280526-6.031306 2.945522-4.067625 8.976828 6.171569z m8.556039 13.324978c0.420789 1.122103 0.280526 1.683155-0.561052 1.262366-0.841578-0.420789-1.402629-1.402629-1.402629-2.244207 0-1.963681 0.981841-1.542892 1.963681 0.981841z m176.731292 106.038775c-2.38447 4.348151-5.470254 6.732621-8.415776 6.732621-1.823418 0-3.506573-0.561052-3.927362-1.122104-0.420789-0.701315 1.262366-0.981841 3.787099-0.561051 3.36631 0.280526 3.927362 0.140263 2.38447-0.981841-1.122103-0.701315-1.542892-1.823418-0.981841-2.524733 0.701315-0.561052 1.683155-0.140263 2.38447 0.981841 1.262366 1.963681 1.683155 1.542892 1.262366-0.841578-0.140263-0.841578 2.945522-3.226047 4.067625-3.36631 0.280526 0 0 0.841578-0.561051 1.683155z m-22.301806 10.379457c-1.262366 1.262366-2.664996 1.823418-3.226048 1.402629-0.420789-0.561052 0-1.542892 1.122104-2.244207 3.36631-2.103944 4.628677-1.542892 2.103944 0.841578z m9.818405 0c-5.049465 3.927362-7.433935 4.909203-8.415776 3.36631-0.420789-0.701315 0.140263-1.402629 1.262366-1.402629 1.262366 0 2.244207-0.561052 2.244207-1.262366s1.122103-1.683155 2.524733-1.963681c4.488414-1.262366 5.189728-0.841578 2.38447 1.262366z m-15.28866 0.420789c-0.420789 0.561052 0.841578 1.823418 2.945522 2.805258 3.646836 1.683155 3.226047 3.646836-0.981841 4.628677-1.122103 0.280526-4.207888 1.823418-6.872883 3.506573-2.664996 1.823418-5.610517 2.664996-7.013147 2.103944-1.683155-0.701315-1.262366-1.122103 1.542893-1.402629 3.085784-0.420789 3.506573-0.841578 2.103944-2.38447-1.122103-1.262366-2.244207-1.402629-3.366311-0.420789-1.262366 0.981841-1.823418 0.981841-1.823418 0 0-0.841578 0.701315-1.963681 1.402629-2.384469 0.841578-0.561052 0.981841-1.683155 0.561052-2.524733-0.561052-0.981841-0.561052-1.262366 0-0.701315s3.085784-0.280526 5.470254-1.823418c4.76894-2.805259 7.293672-3.506573 6.031306-1.402629z m-14.306818 6.452095c-0.561052 1.122103-1.402629 1.683155-2.103944 1.262366-1.542892-0.841578-0.280526-3.36631 1.542892-3.36631 0.701315 0 0.981841 0.981841 0.561052 2.103944z m-2.805259 3.927362c0.981841 0.841578 0.841578 0.981841-0.561052 0.561051-1.122103-0.280526-2.244207-1.683155-2.38447-3.226047-0.280526-1.823418-0.140263-2.103944 0.561052-0.561052 0.420789 1.122103 1.542892 2.664996 2.38447 3.226048z m-3.646836 3.085784c-0.420789 0.420789-1.262366-0.280526-1.683155-1.683155-0.841578-1.963681-0.701315-2.103944 0.701314-0.841578 0.981841 0.981841 1.402629 2.103944 0.981841 2.524733z m-91.030642 17.112078c0.701315 3.506573 0.701315 6.031306 0 6.031306s-1.262366-1.823418-1.262366-4.067625c0-2.244207-0.701315-4.348151-1.542893-4.628677-0.841578-0.280526-0.981841-1.542892-0.420788-3.226047 1.122103-2.945522 1.262366-2.664996 3.226047 5.891043z m-2.664996 1.262366c0 1.122103-0.561052 1.683155-1.402629 1.262366-0.701315-0.420789-1.402629-1.402629-1.402629-2.244207 0-0.701315 0.701315-1.262366 1.402629-1.262366 0.841578 0 1.402629 0.981841 1.402629 2.244207z m218.24912 23.984961c0.561052 1.402629 0.841578 3.36631 0.701315 4.488414-0.140263 0.981841 0.280526 1.402629 0.98184 0.98184 0.701315-0.420789 1.963681 0.841578 2.945522 2.805259 1.823418 4.207888 1.963681 5.189728 0.280525 4.067625-2.103944-1.122103-5.75078 3.36631-5.75078 7.153409 0 1.823418 0.561052 3.36631 1.262367 3.366311s0.981841-1.122103 0.701314-2.524733c-0.701315-2.664996 1.542892-7.013147 2.945522-5.75078 0.420789 0.561052 1.402629 2.805259 1.963681 5.049465 1.122103 3.927362 0.981841 4.207888-1.683155 3.506574-2.244207-0.561052-2.664996-0.280526-1.963681 1.542892 0.561052 1.542892 0.140263 2.38447-1.262367 2.38447-1.122103 0-1.823418-0.561052-1.402629-1.122104 0.420789-0.701315-0.561052-2.244207-2.103944-3.506573-3.226047-2.805259-3.787099-8.696302-0.561052-7.433935 1.122103 0.420789 2.103944 0.140263 2.103944-0.561052 0-0.841578-0.981841-1.402629-2.244207-1.402629-1.823418 0-1.683155-0.420789 0.561052-2.524733 2.244207-1.683155 2.664996-3.36631 2.103944-6.311832-0.420789-2.103944-1.262366-3.787099-1.963681-3.787099-0.701315 0-1.262366-0.701315-1.262366-1.402629 0-2.244207 2.38447-1.542892 3.646836 0.98184z m-283.751908 5.610517c1.683155 8.415776 11.50156 17.953655 22.722595 21.881017 1.683155 0.561052-3.226047 7.153409-14.166556 18.935496-7.854724 8.275513-8.976828 8.976828-20.197862 12.062612-29.876004 8.415776-40.255461 10.800246-64.661211 14.867871-35.205995 5.75078-45.725715 9.537879-60.593586 21.600491-10.239194 8.275513-11.361297 8.696302-23.564172 9.678142-7.153409 0.561052-14.867871 2.524733-23.42391 5.75078-16.410763 6.311832-17.25234 6.452095-18.654969 2.664996-0.981841-2.805259-0.280526-3.646836 4.909202-6.732621 3.36631-1.963681 9.537879-4.207888 13.605504-4.909202 9.678142-1.542892 12.483401-2.664996 12.483401-4.909203 0-1.963681 3.085784-3.506573 7.15341-3.506573 1.402629 0 2.664996-0.561052 2.664995-1.122104 0-1.402629-19.63681-10.940509-21.319965-10.519719-0.561052 0.280526-1.122103-0.140263-1.122103-0.841578s-1.683155-1.683155-3.646837-2.103944c-4.207888-1.122103-16.2705 0.420789-15.288659 1.823418 0.280526 0.561052-1.402629 0.701315-3.787099 0.420789-3.226047-0.561052-4.067625-0.280526-3.226048 1.122103 0.701315 1.262366 0.561052 1.542892-0.420788 0.841578-0.841578-0.561052-2.945522-0.280526-4.628677 0.701315-2.244207 1.122103-2.805259 1.122103-1.963681-0.140263 1.262366-1.963681-7.994987 1.823418-13.044453 5.470254-2.103944 1.402629-5.329991 4.348151-7.293672 6.452095-1.963681 2.103944-4.488414 4.348151-5.75078 4.909202-1.823418 0.981841-2.103944 0.561052-1.542892-2.805258 0.420789-3.085784 3.085784-6.031306 11.361297-12.343138 14.026293-10.800246 15.428922-11.50156 24.546013-11.50156s21.881017-2.524733 21.881017-4.348151c0-0.561052-1.963681-0.841578-4.488414-0.280526l-4.488414 0.841577 2.805259-4.768939c2.38447-4.067625 3.787099-4.909203 9.537879-5.75078 3.646836-0.561052 9.11709-2.664996 12.062612-4.628677l5.470255-3.787099 23.283646 0.98184 23.283646 1.122104-4.207888 4.348151c-6.592358 6.732621-5.189728 7.854724 1.683156 1.262366 4.909203-4.76894 7.153409-5.891043 13.605504-6.732621 10.098931-1.262366 31.138371-7.994987 46.988081-15.008133 16.410763-7.433935 33.803366-13.745767 37.169677-13.745767 1.963681 0 2.524733 0.701315 1.823418 2.384469-1.683155 4.488414 2.103944 0.420789 10.940509-11.50156 4.909203-6.592358 9.257353-11.922349 9.818405-11.922349 0.420789 0 1.262366 1.683155 1.683155 3.787099z m408.585916 16.831552c11.922349 8.415776 22.02128 16.2705 22.442069 17.673129 1.402629 4.207888-16.130237 80.651185-23.283647 101.97115-2.244207 6.592358-7.293672 23.003121-11.221034 36.468362-6.732621 22.722595-9.818405 30.577319-9.818405 24.966802 0-2.664996-11.361297-20.197862-20.197862-30.998108l-6.732621-8.275513 4.348151-13.465241c5.329991-16.971815 6.592358-23.003121 9.257353-46.146504 1.262366-11.641823 3.646836-23.283646 6.311832-31.699422 2.244207-7.293672 4.207888-14.447082 4.207888-15.849711 0-1.823418-5.049465-6.171569-14.727608-13.044453-15.709448-11.080771-15.989974-11.641823-11.080771-19.356284 1.963681-3.226047 23.704435-16.971815 26.930482-17.112078 1.122103-0.140263 11.641823 6.592358 23.564173 14.867871z m-368.610981 8.415776c7.994987 0.701315 9.818405 1.542892 16.130237 7.013146 7.994987 6.732621 10.239194 7.153409 18.795233 3.366311l5.75078-2.664996 1.542892 6.031306c0.841578 3.36631 3.085784 7.994987 5.049466 10.239194 1.963681 2.244207 3.506573 4.488414 3.506573 4.909202 0 0.420789-2.945522 1.683155-6.592358 2.945522-12.343138 4.207888-13.88603 7.854724-8.556039 20.478388l3.085785 7.433935-4.067625 3.226047-4.067625 3.226048-6.592358-5.610517c-3.646836-2.945522-7.574198-5.470254-8.836564-5.470255-2.664996 0-18.65497 7.854724-22.021281 10.659983-1.823418 1.683155-3.36631 1.542892-9.958668-0.701315-15.849711-5.470254-28.613638-7.574198-39.974935-6.452094-5.891043 0.561052-12.062612 1.402629-13.605504 1.963681-1.683155 0.701315-6.732621-0.140263-12.623664-1.963681-9.678142-3.085784-44.04256-7.714461-56.806486-7.714462-3.36631 0-5.891043-0.420789-5.329992-0.841577 0.420789-0.420789 13.324978-2.945522 28.613638-5.470254 25.247327-4.348151 43.06072-8.415776 69.43015-16.2705 8.976828-2.664996 9.678142-3.226047 21.600492-16.831552 8.696302-9.958668 12.90419-13.745767 14.447082-13.184715 1.262366 0.420789 6.171569 1.262366 11.080771 1.683155z m260.327999 4.067625c1.262366 3.226047 0.981841 4.76894-0.701315 4.768939-0.701315 0-1.122103-0.561052-0.561052-1.262366 0.420789-0.701315-0.280526-2.38447-1.542892-3.506573-1.823418-1.963681-1.823418-2.244207-0.140263-2.244207 1.122103 0 2.524733 0.981841 2.945522 2.244207z m-10.940509 2.244207c-1.402629 0.841578-3.085784 0.841578-3.646836 0.280525-0.701315-0.701315 0.420789-1.402629 2.524733-1.542892 3.085784-0.140263 3.36631 0 1.122103 1.262367z m12.763927 4.768939c-0.420789 0.420789-1.683155 0.561052-2.664996 0.140263-1.122103-0.420789-0.701315-0.841578 0.841578-0.841577 1.542892-0.140263 2.38447 0.280526 1.823418 0.701314z m80.370659 14.867871c0 0.841578-1.823418 7.013147-4.207888 13.745767-2.945522 8.556039-5.049465 18.935496-7.013147 35.205995-2.805259 23.844698-4.488414 32.120211-10.098931 47.549134-3.646836 10.379457-6.592358 11.922349-14.587344 7.574198-4.348151-2.38447-4.909203-2.38447-12.343138-0.140263-6.031306 1.963681-8.976828 2.244207-12.90419 1.122104-2.664996-0.701315-5.75078-1.122103-6.73262-0.701315-2.103944 0.841578-23.423909 23.844698-26.79022 29.174689-2.244207 3.36631-2.664996 6.732621-2.805259 18.795233 0 8.556039-0.561052 15.008134-1.402629 15.288659-0.841578 0.280526-1.262366-7.994987-0.981841-23.423909l0.280526-23.984961 5.329992-7.293672c14.727608-20.197862 17.112077-28.613638 12.062612-43.06072-1.963681-5.891043-2.524733-11.080771-2.38447-22.722595 0.140263-8.415776 0.841578-17.25234 1.683155-19.63681 0.701315-2.524733 3.085784-10.239194 5.049465-16.971814l3.646837-12.343138 6.872883 6.171569c4.348151 3.927362 9.257353 6.872884 13.044453 7.714461 3.36631 0.841578 8.415776 3.226047 11.361297 5.189728 4.628677 3.226047 5.610517 3.36631 7.013147 1.542892 0.841578-1.262366 8.415776-6.592358 16.831551-11.922349 14.026293-8.836565 19.075759-10.659983 19.075759-6.872883z m-281.788227 5.470254c1.262366 1.402629 2.805259 2.103944 3.36631 1.542892 0.701315-0.561052 0.701315-0.140263 0.140263 0.841578-0.701315 1.122103-0.420789 1.823418 0.701315 1.542892 3.927362-0.420789 5.329991 0.140263 4.628676 2.103944-0.841578 2.38447 1.683155 4.348151 2.945522 2.244207 0.841578-1.402629 16.691289 6.452095 21.740754 10.659983 1.122103 0.981841 2.805259 1.823418 3.506573 1.823418 0.841578 0.140263 2.524733 1.122103 4.067625 2.38447 1.402629 1.262366 3.36631 2.38447 4.207888 2.524732 2.524733 0.420789 13.184715 6.311832 14.026293 7.714461 1.402629 2.103944-4.628677 3.36631-7.013146 1.40263-1.122103-0.841578-1.683155-1.963681-1.262367-2.38447 0.280526-0.420789 1.542892 0.140263 2.805259 1.122103 1.262366 0.981841 2.524733 1.402629 2.945522 0.981841 0.420789-0.420789-0.841578-1.823418-2.945522-3.226047-3.226047-2.103944-3.927362-2.103944-5.049465-0.420789-1.823418 3.085784-1.542892 3.646836 2.945521 5.470254 3.226047 1.402629 5.189728 1.402629 7.714461 0.280526 3.787099-1.683155 10.51972 0.280526 10.51972 2.945521 0 0.701315-0.981841 0.561052-1.963681-0.420788-1.542892-1.262366-2.664996-1.262366-4.628677 0-2.38447 1.542892-2.38447 1.542892 0 0.841577 1.402629-0.420789 3.506573 0.140263 4.76894 1.262367 1.122103 1.122103 2.664996 1.823418 3.36631 1.402629 0.701315-0.561052 0.841578 0.140263 0.420789 1.402629-0.701315 1.542892-1.402629 1.823418-2.38447 0.841578-0.981841-0.981841-3.226047-0.420789-7.153409 1.402629l-5.75078 2.805259 3.927362-3.366311 3.927362-3.226047-3.787099-1.823418c-2.103944-0.841578-4.067625-1.402629-4.488414-0.981841-0.981841 0.981841-7.854724-2.805259-10.239194-5.610517-1.542892-1.823418-1.542892-2.524733-0.140263-2.945521 0.841578-0.420789 1.683155-1.262366 1.683155-2.103944s-0.841578-0.701315-2.103944 0.280525c-1.823418 1.402629-2.524733 1.542892-3.927362 0.140263-1.262366-1.402629-1.122103-1.542892 0.841578-0.841577 1.402629 0.561052 2.38447 0.280526 2.38447-0.561052 0-0.841578-0.841578-1.542892-1.963681-1.542892-1.122103 0-2.945522-0.981841-4.207888-2.103944-1.262366-1.262366-2.38447-1.542892-2.945522-0.701315-0.420789 0.701315 1.402629 3.506573 4.207888 6.171569 3.36631 3.36631 4.628677 5.610517 4.067625 7.433936-0.561052 1.823418-0.420789 2.103944 0.561052 0.561051 0.981841-1.262366 1.683155-1.402629 2.244207-0.280526 0.561052 0.841578 0.420789 1.542892-0.140263 1.542893-0.701315 0-1.402629 1.683155-1.542893 3.787099-0.280526 4.488414-4.348151 9.257353-6.872883 8.275513-0.981841-0.420789-2.103944-0.140263-2.524733 0.701314-0.561052 0.701315-1.542892 0.981841-2.244207 0.420789-0.841578-0.420789-0.981841 0.701315-0.420789 3.226047 1.402629 5.610517 1.683155 6.031306 5.891044 6.031306l3.787099-0.140262-4.207888-1.823419-4.207888-1.823418 6.311832-0.841577c13.184715-1.823418 16.831552-2.664996 15.849711-4.207888-0.420789-0.701315-0.140263-0.981841 0.701314-0.420789 0.701315 0.420789 1.683155 0 2.103944-0.841578 0.280526-0.981841 1.122103-1.262366 1.823419-0.701314 0.701315 0.701315 0.140263 1.823418-1.262367 2.524733-2.38447 1.402629-2.103944 4.067625 0.561052 4.067625 0.841578 0 1.122103-0.561052 0.701315-1.262367-1.122103-1.683155 3.085784-3.36631 8.976827-3.506573 2.805259-0.140263 4.909203-0.841578 4.909203-1.823418 0-0.841578 0.420789-2.103944 1.122103-2.664996 0.561052-0.561052 0.981841 0.280526 0.981841 1.823418 0 3.36631-2.524733 4.628677-8.836565 4.628677-3.085784 0-3.927362 0.420789-2.664996 1.262366 1.402629 0.841578 0.420789 1.402629-3.226047 2.103944-2.805259 0.561052-6.171569 1.402629-7.433935 1.823418-2.103944 0.841578-2.103944 0.701315-0.420789-1.402629 2.103944-2.664996 0.841578-3.085784-5.329992-1.402629l-3.226047 0.841577 3.226047 1.963681 3.366311 1.963681-3.366311-0.98184c-2.244207-0.561052-2.945522-0.420789-2.384469 0.701315 0.701315 0.981841-0.140263 1.542892-2.103944 1.542892-1.823418 0-5.329991 0.701315-7.854724 1.683155-5.891043 2.103944-8.976828-0.420789-9.53788-8.275513l-0.420788-5.329991 2.524732 5.610517c1.262366 3.085784 2.244207 5.891043 1.963681 6.311832-0.140263 0.420789 0.841578 0.841578 2.244207 0.98184 2.664996 0.280526 2.664996 0.140263 0.140263-2.664995-1.542892-1.542892-2.38447-3.646836-1.963681-4.76894 0.420789-1.122103 0.140263-1.963681-0.561052-1.963681-0.561052 0-1.963681-1.402629-3.085784-2.945522-1.542892-2.524733-1.542892-3.226047 0.140263-4.34815 1.402629-0.981841 1.402629-1.542892 0.140263-2.103944-0.981841-0.280526-1.823418-1.402629-1.823418-2.244207 0-1.122103 0.561052-0.981841 1.683155 0.140263 1.963681 1.963681 5.329991 2.244207 5.329991 0.420788 0-0.701315-1.542892-1.683155-3.506573-2.103944-1.963681-0.561052-3.506573-1.542892-3.506573-2.384469 0-0.981841 0.841578-0.841578 2.384469 0.280526 1.963681 1.683155 2.244207 1.683155 1.683156 0-1.262366-3.506573-3.646836-3.226047-6.171569 0.841577-1.683155 2.524733-1.963681 3.927362-0.981841 4.348151 0.981841 0.280526 1.683155 1.122103 1.683155 1.963681 0 0.841578-1.122103 0.981841-2.384469 0.561052-2.103944-0.841578-2.244207-0.701315-0.140263 1.542892 1.122103 1.402629 2.524733 4.348151 3.085784 6.732621 0.561052 3.226047 0 2.664996-2.664996-2.524733-1.823418-3.787099-2.945522-7.854724-2.524732-8.976828 0.561052-1.402629 0.280526-1.963681-0.561052-1.402629-0.841578 0.561052-1.963681 0-2.38447-1.262366-0.420789-1.122103-0.280526-1.683155 0.420789-1.262367 2.244207 1.262366 3.226047-1.823418 1.542892-4.768939-0.701315-1.542892-1.542892-4.348151-1.683155-6.171569-0.140263-1.963681-0.981841-3.226047-1.963681-2.805259-1.122103 0.420789-0.981841 2.103944 0.841578 5.75078 1.402629 2.805259 2.244207 5.470254 1.823418 5.891043-0.981841 0.981841-4.76894-4.488414-4.207888-6.311832 0.280526-0.701315-0.280526-2.244207-1.40263-3.226047-0.981841-0.981841-1.823418-2.664996-1.823418-3.506573 0-1.122103 0.420789-1.122103 1.262367 0.140263 0.981841 1.542892 1.262366 1.542892 1.963681-0.280526 0.841578-1.963681-0.561052-2.945522-3.506574-2.38447-0.561052 0-0.561052-0.981841-0.140262-2.244207 0.701315-1.683155 0.420789-1.963681-1.122104-1.122103-1.122103 0.561052-1.542892 0.701315-0.98184 0 0.561052-0.561052 0.280526-2.103944-0.561052-3.366311-0.981841-1.262366 1.262366 0.561052 4.909202 4.067625 3.646836 3.36631 6.592358 7.433935 6.592358 9.117091 0 1.542892 0.561052 3.646836 1.262367 4.628677 0.981841 1.542892 1.262366 1.542892 1.963681-0.280526 0.561052-1.262366 0.280526-2.244207-0.420789-2.244207-0.841578 0-1.402629-0.841578-1.40263-1.823418 0.140263-0.841578 4.207888 2.664996 9.117091 7.854724l8.836565 9.678142 2.805258-2.805259c3.226047-3.226047 2.38447-5.470254-0.841577-2.664995-1.823418 1.402629-1.963681 1.262366-0.420789-1.542893 2.524733-4.76894 1.122103-7.854724-2.524733-5.610517-1.542892 0.981841-2.38447 2.244207-1.963681 2.945522 0.420789 0.701315 1.262366 0.420789 1.963681-0.561052 0.561052-0.981841 1.542892-1.402629 1.963681-0.98184 0.561052 0.561052 0.140263 1.823418-0.841578 2.805258-1.402629 1.683155-2.664996 0.981841-7.293672-4.067625-5.610517-6.031306-6.452095-10.51972-1.963681-11.361297 1.262366-0.280526 2.38447 0.140263 2.38447 0.98184s-0.981841 1.542892-2.103944 1.542893c-2.38447 0-2.805259 3.506573-0.701315 4.909202 0.841578 0.420789 1.402629-0.140263 1.40263-1.262366 0-1.262366 0.701315-2.244207 1.402629-2.244207 1.963681 0 1.823418 1.823418-0.280526 3.927362-0.981841 0.981841-1.402629 1.683155-0.98184 1.823418 4.628677 0.841578 6.872884 0.561052 6.872883-1.122103 0-1.122103-0.561052-1.683155-1.122103-1.262367-1.122103 0.701315-1.402629 0-1.963681-5.75078-0.280526-3.506573-3.506573-6.452095-4.628677-4.488414-0.561052 0.841578-2.524733 1.122103-4.207888 0.701315-1.823418-0.420789-3.787099-0.280526-4.207888 0.561052-0.420789 0.701315 0.140263 1.402629 1.262366 1.402629 1.262366 0 2.244207 0.981841 2.244207 2.103944 0 2.805259-0.420789 2.664996-4.067625-1.262366l-3.085784-3.366311 3.226047-3.085784c1.963681-1.963681 2.38447-2.945522 0.981841-2.38447-1.262366 0.420789-2.805259-0.420789-3.787099-1.963681-0.981841-1.402629-2.38447-2.664996-3.226048-2.664996-1.122103 0-1.122103 0.561052 0 1.823418 0.841578 1.122103 1.122103 2.38447 0.561052 2.805259-0.420789 0.561052-0.140263 0.981841 0.841578 0.98184s1.262366 0.701315 0.701314 1.542893c-0.561052 0.841578-4.628677-2.103944-10.239194-7.574199-5.049465-5.049465-11.080771-10.940509-13.465241-12.904189l-4.207888-3.787099 4.207888 2.524733c2.38447 1.262366 5.189728 3.646836 6.452095 4.909202z m-23.423909 14.727608c1.262366 3.36631 0.280526 3.646836-1.683156 0.561051-0.981841-1.542892-1.122103-2.805259-0.420788-2.805258s1.683155 0.981841 2.103944 2.244207z m208.851503 4.067625c-0.420789 1.262366-1.122103 1.963681-1.40263 1.542892-0.420789-0.420789-0.280526-1.262366 0.280526-2.103944 1.262366-2.244207 2.103944-1.823418 1.122104 0.561052z m-204.503353 6.73262c1.122103 2.805259 1.823418 5.189728 1.40263 5.189729-0.701315 0-4.909203-9.397616-4.909203-10.940509 0-1.542892 1.402629 0.701315 3.506573 5.75078zM249.70832 485.951329c0 0.280526-1.122103 1.402629-2.384469 2.38447-2.244207 1.823418-2.38447 1.683155-0.561052-0.561052 1.823418-2.244207 2.945522-2.945522 2.945521-1.823418z m111.50903 2.945522c24.40575 2.945522 49.933603 11.361297 56.666224 18.795233 2.664996 2.945522 3.085784 3.085784 2.38447 0.841577-0.841578-2.244207-0.701315-2.524733 0.701314-1.122103s1.402629 2.244207 0.280526 3.36631c-1.683155 1.683155-0.841578 5.891043 0.841578 4.909203 0.420789-0.280526 0.981841 1.122103 1.122103 3.085784 0.420789 6.171569 2.103944 12.90419 3.226048 12.90419 0.981841 0 0.140263 14.166556-0.981841 15.288659-0.280526 0.420789-2.38447-0.420789-4.76894-1.823418s-4.628677-2.103944-5.049465-1.683155c-0.561052 0.420789-1.542892 0.140263-2.524733-0.561052-0.841578-0.701315-5.610517-2.945522-10.659983-4.76894-4.909203-1.823418-11.361297-4.488414-14.166555-5.610517-4.628677-1.963681-5.189728-1.963681-4.488414-0.140263 0.561052 1.122103 1.402629 2.103944 2.244207 2.103944 0.701315 0 0.841578 0.701315 0.280525 1.542892-0.561052 1.122103-1.963681-0.140263-3.506573-3.085784-1.542892-2.805259-2.524733-3.787099-2.664995-2.38447 0 3.085784 6.311832 12.483401 7.574198 11.221035 0.561052-0.420789 0.561052 0 0.140263 1.262366-0.981841 2.524733 2.524733 9.257353 20.057599 38.712569l8.556038 14.447082h-14.026293c-13.605504 0-18.65497 1.122103-25.527853 5.891043-2.38447 1.683155-4.909203-0.561052-24.546013-20.758914-23.143383-23.704435-30.998108-34.785207-38.572305-54.001228-6.872884-17.392603-6.311832-32.961789 1.542892-39.273621 3.506573-2.664996 4.76894-2.945522 16.410763-2.103944 7.013147 0.561052 20.197862 1.823418 29.455215 2.945522z m347.99233 1.262366c-2.524733 2.103944-3.36631 3.646836-2.38447 4.207888 2.244207 1.402629 0.280526 4.067625-2.244207 3.085785-1.402629-0.561052-1.823418-0.140263-1.262366 1.683155 0.420789 1.262366-0.140263 3.927362-1.262366 5.891043-1.122103 1.963681-1.963681 2.664996-2.103944 1.683155 0-2.945522-3.085784-1.122103-4.488414 2.664996-1.122103 3.226047-0.981841 3.226047 0.98184 0.701314 1.122103-1.542892 2.103944-2.103944 2.103944-1.122103 0 0.841578-1.402629 2.524733-3.085784 3.646836-2.38447 1.542892-3.226047 3.36631-2.945522 6.732621 0.280526 7.013147 0.280526 7.013147 1.823418 6.031306 0.701315-0.420789 0.981841-1.683155 0.561052-2.664996-0.981841-2.664996 2.945522-3.787099 5.610517-1.823418 2.103944 1.542892 2.103944 1.963681 0.140263 4.488414-1.262366 1.542892-1.963681 1.963681-1.402629 1.122103 0.420789-0.981841 0.140263-2.945522-0.701315-4.207888-1.542892-2.244207-1.542892-2.244207-0.841577-0.140263 0.841578 2.805259-0.701315 4.067625-5.329992 4.488414-2.103944 0.280526-3.085784-0.420789-3.226047-2.103944-0.140263-1.402629 0.280526-2.945522 1.122103-3.36631 0.701315-0.561052 1.262366-1.683155 1.262367-2.524733 0-0.981841-0.701315-0.561052-1.542893 0.981841-1.262366 2.103944-1.823418 2.244207-2.805258 0.701314-0.701315-1.262366-0.981841-0.280526-0.561052 2.664996 0.280526 2.524733 0 4.207888-0.701314 3.787099-0.701315-0.420789-0.841578-1.823418-0.420789-3.085784 0.841578-2.103944 0.701315-2.244207-1.262367-0.420789-1.262366 1.122103-1.823418 2.664996-1.402629 3.506573 0.420789 0.701315-0.280526 0.561052-1.542892-0.420789-1.963681-1.683155-2.38447-1.402629-3.085785 2.103944-1.683155 7.574198-2.945522 9.397616-6.73262 9.53788-2.945522 0.280526-3.36631-0.140263-2.38447-2.103944 0.701315-1.262366 0.841578-3.646836 0.420789-5.329992-0.420789-1.823418-0.140263-3.085784 0.841577-3.085784s1.262366 0.561052 0.841578 1.402629c-0.420789 0.701315-0.280526 2.524733 0.561052 3.787099 1.122103 2.103944 1.262366 1.963681 1.262366-0.98184 0-1.963681 0.420789-5.049465 0.98184-7.013147 0.701315-2.945522 0.701315-3.085784-0.701314-0.98184-0.841578 1.262366-2.103944 2.103944-2.805259 1.683155-0.561052-0.420789-1.823418 1.262366-2.664995 3.787099-1.262366 3.506573-1.963681 4.067625-3.366311 2.664996-1.262366-1.262366-0.420789-2.805259 4.348151-7.293673 3.226047-3.085784 5.891043-5.189728 5.891043-4.488414 0 0.561052 1.262366-0.841578 2.805259-3.085784 2.524733-3.787099 2.805259-3.927362 2.38447-0.981841-0.280526 1.823418-1.262366 3.787099-2.103944 4.348151-0.981841 0.561052-1.963681 4.067625-2.38447 7.994987-0.420789 5.049465-0.420789 5.75078 0.420789 2.664996 0.701315-2.38447 2.244207-6.171569 3.506573-8.556039 1.262366-2.38447 1.823418-4.76894 1.402629-5.329991-0.561052-0.420789-0.140263-0.841578 0.841578-0.841578s1.262366-0.701315 0.701314-1.542892c-0.420789-0.841578 1.262366-3.646836 3.787099-6.311832 4.76894-4.909203 6.872884-5.891043 6.872884-3.226047 0 0.701315-0.561052 1.122103-1.262366 0.701314-1.963681-1.262366-4.348151 2.524733-2.945522 4.76894 0.841578 1.262366 0.420789 2.524733-1.122103 3.646836-1.823418 1.402629-1.963681 2.103944-0.701315 3.366311 1.262366 1.402629 2.103944 0.561052 4.067625-2.945522 1.402629-2.664996 2.664996-5.189728 2.805259-5.891043 0.140263-0.561052 0.420789-1.262366 0.561051-1.683155 0.280526-0.561052 0.701315-1.823418 1.262367-4.207888 0-0.420789 1.402629-0.140263 2.805258 0.561052 2.103944 1.122103 2.805259 0.981841 3.506574-0.701315 0.420789-1.262366 0.420789-2.805259 0-3.506573-1.402629-2.38447 8.556039-15.008134 10.379456-13.184716 0.420789 0.420789-0.981841 2.244207-3.085784 4.067625zM228.668881 488.055273c0 0.561052-1.542892 2.524733-3.506573 4.348151s-3.226047 4.207888-2.805259 5.329992c0.420789 1.122103 0 1.402629-0.98184 0.841577-0.981841-0.701315-1.262366-0.280526-0.701315 1.262366s0.280526 1.963681-1.262367 1.40263c-0.981841-0.420789-1.963681-0.561052-2.103943-0.280526 0 0.280526-0.420789 3.646836-0.841578 7.574198-0.420789 3.787099-1.262366 10.800246-1.823418 15.428922l-0.981841 8.415776-0.561051-11.221034c-0.841578-19.356284-0.420789-21.179702 4.909202-27.77206 4.207888-5.189728 10.659983-8.415776 10.659983-5.329992z m11.361297 2.524733c1.823418 2.244207 1.683155 2.38447-0.420789 0.561052-1.402629-0.981841-2.524733-2.103944-2.524732-2.38447 0-1.122103 1.122103-0.420789 2.945521 1.823418z m-5.75078 7.293672c0 6.311832-0.420789 7.153409-4.76894 9.818406-6.171569 3.787099-6.452095 3.787099-6.452094-1.542893 0-3.36631 1.402629-5.891043 5.189728-9.818405 2.805259-2.945522 5.329991-5.329991 5.610517-5.329991 0.280526 0 0.420789 3.085784 0.420789 6.872883z m-33.663103-4.909202c0 0.280526-0.981841 0.981841-2.244207 1.402629-1.122103 0.420789-1.683155 0.280526-1.262366-0.561052 0.841578-1.402629 3.506573-1.963681 3.506573-0.841577z m51.055706 3.787099c4.488414 2.103944 3.36631 4.067625-2.103944 4.067625-3.085784 0-4.067625-0.701315-4.067624-2.805259 0-3.226047 1.262366-3.506573 6.171568-1.262366z m447.859537 2.945522c0.280526 2.38447 0 2.664996-0.981841 1.122103-0.701315-1.122103-0.841578-2.524733-0.561051-3.085784 1.122103-1.683155 1.402629-1.402629 1.542892 1.963681zM181.680799 502.221829c-1.402629 1.542892-2.805259 2.524733-3.226047 2.103944-0.420789-0.420789 0.420789-1.963681 1.823418-3.506573s2.805259-2.524733 3.226047-2.103944c0.420789 0.420789-0.420789 1.963681-1.823418 3.506573zM521.818405 518.772855c-1.262366 1.963681-1.402629 1.823418-0.561052-0.98184 0.561052-1.963681 0.280526-2.945522-0.420788-2.524733-0.841578 0.561052-2.244207-1.683155-3.085785-4.76894-0.981841-3.226047-2.103944-6.732621-2.524733-8.13525-0.280526-1.262366 1.262366 1.402629 3.646837 5.891043 3.506573 6.311832 4.067625 8.696302 2.945521 10.51972z m203.240986-5.049465c-0.140263 4.909203-0.561052 7.574198-0.841578 6.171569-0.561052-2.103944-0.981841-2.244207-2.103943-0.701315s-1.262366 1.402629-0.561052-0.561052c0.420789-1.402629 1.262366-5.049465 1.683155-8.13525 1.262366-7.994987 1.963681-6.732621 1.823418 3.226048z m-16.2705-1.683156c-1.122103 2.38447-2.103944 4.207888-2.38447 4.207888-0.701315 0 0.140263-6.592358 1.122104-8.13525 2.103944-3.506573 3.36631-0.140263 1.262366 3.927362z m-283.050593-0.140263c-0.420789 0.841578-1.542892 1.542892-2.244207 1.542893s-0.561052-0.841578 0.420789-1.963681c1.963681-2.244207 3.36631-1.823418 1.823418 0.420788z m179.396288-0.561051c-0.981841 2.244207-3.36631 2.945522-3.366311 0.841577 0-1.122103 0.981841-1.823418 3.787099-2.805258 0.140263-0.140263 0 0.841578-0.420788 1.963681z m-4.76894-0.140263c0 0.280526 0.420789 1.542892 0.841578 2.805258 0.561052 1.542892 0 2.244207-1.683156 2.244207-2.244207 0-2.38447-0.280526-0.561051-1.542892 1.542892-1.122103 1.122103-1.262366-1.823418-0.561052-3.506573 0.701315-3.787099 0.561052-2.103944-1.262366 1.683155-1.963681 5.329991-3.085784 5.329991-1.683155z m104.215357 2.945521c-0.420789 1.262366-1.122103 1.963681-1.402629 1.542893-0.420789-0.420789-0.280526-1.262366 0.280526-2.103944 1.262366-2.244207 2.103944-1.823418 1.122103 0.561051z m-479.558958 1.542893c1.402629 3.646836 0.981841 4.76894-1.963681 4.768939-1.542892 0-2.805259-0.561052-2.805259-1.262366 0-2.38447 1.683155-5.75078 2.805259-5.75078 0.561052 0 1.542892 0.981841 1.963681 2.244207z m490.359204 2.244206c0-0.841578 0.701315-1.683155 1.402629-1.683155 2.244207 0 1.683155 7.854724-0.701314 9.818405-1.262366 0.981841-2.524733 1.402629-3.085785 0.841578-0.420789-0.420789-0.140263-0.841578 0.841578-0.841578 1.122103 0 1.402629-1.122103 0.701314-3.226047-2.38447-7.714461-2.38447-7.433935-0.701314-5.189728 0.981841 1.402629 1.542892 1.542892 1.542892 0.280525z m-466.654769 4.067625c-1.122103 1.122103-1.823418 0.981841-2.524733-0.280525-0.841578-1.122103-0.561052-1.402629 0.701315-0.561052 1.402629 0.841578 1.683155 0.561052 0.841577-1.542892s-0.701315-2.38447 0.701315-0.981841c1.262366 1.402629 1.402629 2.244207 0.280526 3.36631z m457.537678-1.823418c0 2.524733-2.805259 2.103944-3.226047-0.561051-0.420789-1.402629 0.140263-2.103944 1.402629-1.683156 0.981841 0.420789 1.823418 1.402629 1.823418 2.244207zM528.831552 529.432838c0 1.122103 0.841578 2.38447 1.823418 2.805258 0.841578 0.420789 0.420789 0.561052-1.122104 0.420789-1.823418-0.280526-2.664996-1.262366-2.38447-2.945521 0.280526-1.683155-0.140263-2.244207-1.262366-1.40263-1.122103 0.561052-1.402629 0.420789-0.701315-0.561051 0.561052-0.981841 0.280526-2.805259-0.420788-4.067625-0.981841-1.823418-1.402629-1.963681-1.542893-0.561052 0 1.122103-0.280526 1.683155-0.701314 1.262366-0.420789-0.420789-0.420789-1.823418 0.140263-3.085784 0.701315-1.963681 1.402629-1.683155 3.506573 1.963681 1.542892 2.38447 2.664996 5.189728 2.664996 6.171569z m197.20968-0.981841c-0.561052 3.36631-0.420789 4.628677 0.280525 3.506574 0.981841-1.542892 1.683155-0.841578 2.805259 2.384469s1.122103 4.207888-0.140263 3.927362c-1.122103-0.140263-1.542892 1.683155-1.402629 5.329992 0.280526 4.067625 0 5.049465-0.981841 3.506573-0.701315-1.122103-0.981841-3.36631-0.701314-4.909203 0.420789-1.542892 0.280526-1.963681-0.140263-0.98184-0.841578 1.823418-3.36631 0.981841-3.366311-1.262366 0-0.841578 0.561052-1.122103 1.262367-0.561052 0.841578 0.420789 2.103944-0.420789 2.805258-1.963681 2.244207-4.067625 1.823418-5.470254-0.561051-2.38447-2.244207 2.945522-2.38447 2.664996-2.664996-4.067625-0.280526-3.506573 1.402629-7.433935 3.226047-7.714461 0.280526 0 0 2.38447-0.420788 5.189728z m-473.38739 1.40263c1.823418 2.244207 1.683155 2.38447-0.420789 0.561051-1.402629-0.981841-2.524733-2.103944-2.524733-2.38447 0-1.122103 1.122103-0.420789 2.945522 1.823419z m410.830123 5.049465c0 1.262366-0.280526 1.262366-1.122104 0-0.701315-1.122103-1.963681-0.561052-4.067625 1.823418-1.683155 1.823418-2.524733 3.36631-1.823418 3.36631s1.683155-0.701315 2.103944-1.402629c0.981841-1.683155 4.909203-1.823418 4.909203-0.280526 0 0.701315-2.244207 1.963681-4.909203 3.085785-2.664996 1.122103-4.909203 2.805259-4.909202 3.787099 0 1.122103 0.981841 1.402629 2.524732 0.841577 2.103944-0.841578 2.244207-0.701315 0.280526 1.542893-1.122103 1.542892-2.244207 1.963681-2.524733 0.98184-0.280526-0.841578-1.122103-1.262366-1.683155-0.841577-0.701315 0.420789-0.981841 1.683155-0.420789 2.805258 0.420789 1.122103 0 2.103944-0.841577 2.103944s-1.542892-1.402629-1.542892-2.945521c0-2.524733-0.280526-2.664996-2.103944-1.262367-1.683155 1.402629-1.823418 2.244207-0.561052 3.646836 1.262366 1.542892 1.122103 1.963681-0.701315 1.963681-1.262366 0-2.244207 0.981841-2.244207 2.244207 0 1.542892 0.841578 1.963681 3.226048 1.122104 1.683155-0.561052 3.506573-1.683155 4.067625-2.524733 0.561052-0.841578 1.402629-0.981841 1.963681-0.420789 1.402629 1.402629-2.244207 5.329991-4.76894 4.909203-1.122103-0.280526-2.38447 0.420789-2.805258 1.542892-0.420789 1.402629 0.280526 1.542892 2.664995 0.841578 2.524733-0.701315 2.805259-0.561052 1.40263 0.561051-1.683155 1.122103-1.262366 1.542892 1.963681 2.38447l4.207888 0.981841-5.610518 2.38447c-3.927362 1.683155-5.891043 1.963681-6.592357 0.841577-0.701315-0.981841-1.122103-0.701315-1.122104 0.701315 0 2.38447-2.805259 4.207888-6.031306 3.927362-0.981841 0-0.280526-0.561052 1.542892-1.262367 1.683155-0.701315 3.085784-2.244207 3.085785-3.506573 0-1.122103 0.561052-2.103944 1.262366-2.103944s2.38447-0.420789 3.787099-0.98184c1.683155-0.561052 2.103944-0.420789 1.40263 0.701314s-0.280526 1.402629 1.402629 0.701315c3.36631-1.262366-0.561052-3.226047-5.610517-2.664996-2.664996 0.280526-3.646836-0.140263-3.085785-1.262366 0.841578-2.38447-0.561052-3.646836-2.524732-2.38447-0.841578 0.561052-1.963681 0.981841-2.524733 1.122104-0.701315 0.140263-1.542892 0.280526-1.963681 0.420788-0.561052 0-0.280526 0.981841 0.561051 1.963681 1.122103 1.262366 0.981841 2.945522-0.420788 5.750781-2.524733 4.76894-2.664996 5.470254-0.420789 4.207887 0.981841-0.561052 1.122103-0.420789 0.561052 0.701315-0.561052 0.841578-1.683155 1.262366-2.38447 0.841578-0." p-id="1714"></path></svg>